<?xml version="1.0" encoding="utf-8"?>
<!-- Generator: Adobe Illustrator 16.0.0, SVG Export Plug-In . SVG Version: 6.00 Build 0)  -->
<!DOCTYPE svg PUBLIC "-//W3C//DTD SVG 1.1//EN" "http://www.w3.org/Graphics/SVG/1.1/DTD/svg11.dtd">
<svg version="1.1" id="Layer_1" xmlns="http://www.w3.org/2000/svg" xmlns:xlink="http://www.w3.org/1999/xlink" x="0px" y="0px"
	 width="283.464px" height="74.043px" viewBox="0 0 283.464 74.043" enable-background="new 0 0 283.464 74.043"
	 xml:space="preserve">
<g>
	<g>
		<g>
			<defs>
				<path id="SVGID_1_" d="M27.66,58.344c-1.206-0.373-18.742-5.951-16.036-13.596c1.475-4.164,6.51-2.109,9.035-0.893l-0.002-0.004
					c9.121,4.528,18.953,7.953,29.054,9.315c4.838,0.653,9.795,0.608,14.675-0.063c-5.135,3.242-10.774,5.588-17.165,6.5
					c-2.075,0.297-4.18,0.438-6.295,0.438C36.49,60.042,32.011,59.424,27.66,58.344 M84.048,40.154
					c4.663-4.773,9.364-9.449,15.057-12.989c-2.744,3.625-5.495,7.25-8.525,10.642c-4.448,4.978-9.706,8.551-15.608,10.709
					C78.144,45.939,81.151,43.124,84.048,40.154 M116.915,12.769c5.191-5.204,7.748-7.145,11.396-8.38
					c0.091-0.029,0.182-0.059,0.274-0.088c0.143-0.047,0.289-0.093,0.437-0.138c0.215-0.064,0.43-0.127,0.648-0.188
					c0.095-0.026,0.189-0.053,0.288-0.08c1.629-0.439,3.302-0.752,5.001-0.94c6.343-0.706,12.899,0.033,19.082,1.768
					c4.912,1.68,8.196,5.61,6.838,8.988c-1.283,3.191-12.032,2.488-15.808,2.139c-0.333-0.037-0.663-0.071-0.993-0.105
					c-0.059-0.006-0.119-0.009-0.177-0.014c-0.084-0.009-0.138-0.016-0.138-0.016l0.011,0.006
					c-11.019-1.054-22.388,0.637-32.929,4.152C112.721,17.394,114.662,15.026,116.915,12.769 M114.545,9.567
					c-5.007,3.789-8.799,8.849-12.568,13.816c-9.212,4.395-16.568,10.787-23.759,18.151c-3.091,3.166-6.316,6.144-9.759,8.745
					c-1.995,0.359-4.046,0.574-6.151,0.646c-11.753,0.399-23.618-3.706-34.135-8.608c-4.592-2.139-9.486-5.988-14.584-6.706
					C8.333,34.872,2.638,37.93,0.572,42.779C-1.227,47,1.51,50.896,4.708,53.432c3.953,3.135,9.333,4.983,14.05,6.434
					c12.099,3.719,24.846,3.732,36.86-0.328c5.4-1.824,10.282-4.441,14.806-7.594c4.884-1.215,9.604-3.064,13.947-5.508
					c1.301-0.732,2.535-1.543,3.723-2.406l0.017-0.002c0,0,9.51-6.414,14.649-13.122c2.271-2.963,4.246-5.792,6.208-8.494
					c5.738-2.102,11.833-3.359,17.813-3.948c8.788-0.865,19.254-0.434,27.381,3.551c5.615,2.816,15.227,3.296,18.957-2.868
					c4.033-6.662-1.914-12.525-7.834-14.976c-6.632-2.749-13.847-4.169-21.033-4.17C133.648,0,123.101,3.091,114.545,9.567"/>
			</defs>
			<clipPath id="SVGID_2_">
				<use xlink:href="#SVGID_1_"  overflow="visible"/>
			</clipPath>
			
				<linearGradient id="SVGID_3_" gradientUnits="userSpaceOnUse" x1="-417.5259" y1="410.4717" x2="-416.5269" y2="410.4717" gradientTransform="matrix(171.872 -21.8457 -21.8457 -171.872 80728.2813 61470.1719)">
				<stop  offset="0" style="stop-color:#CBDB2A"/>
				<stop  offset="0.5" style="stop-color:#8DC63F"/>
				<stop  offset="1" style="stop-color:#00A651"/>
			</linearGradient>
			<polygon clip-path="url(#SVGID_2_)" fill="url(#SVGID_3_)" points="-9.182,1.011 174.316,-22.313 185.107,62.584 1.609,85.909 
							"/>
		</g>
	</g>
</g>
<path fill="#4B4F54" d="M144.384,38.389c-5.447,0-9.862,4.416-9.862,9.861c0,5.447,4.415,9.861,9.862,9.861s9.861-4.414,9.861-9.861
	C154.246,42.805,149.832,38.389,144.384,38.389 M144.384,54.747c-3.581,0-6.495-2.914-6.495-6.496c0-3.58,2.914-6.494,6.495-6.494
	c3.58,0,6.494,2.914,6.494,6.494C150.878,51.833,147.964,54.747,144.384,54.747"/>
<rect x="178.589" y="38.629" fill="#4B4F54" width="19.242" height="3.367"/>
<rect x="178.589" y="46.566" fill="#4B4F54" width="19.242" height="3.369"/>
<rect x="178.589" y="54.504" fill="#4B4F54" width="19.242" height="3.367"/>
<path fill="#4B4F54" d="M172.72,38.629l-6.678,15.479c-0.131,0.305-0.563,0.305-0.692,0l-6.679-15.479h-3.943l7.477,17.33
	c0.602,1.395,1.975,2.297,3.491,2.297c1.519,0,2.892-0.902,3.493-2.297l7.477-17.33H172.72z"/>
<path fill="#4B4F54" d="M216.113,40.947c-1.683-1.442-3.863-2.317-6.254-2.317c-2.389,0-4.57,0.875-6.254,2.317
	c-2.059,1.765-3.368,4.38-3.368,7.304v9.621h3.368V48.25c0-3.447,2.807-6.254,6.254-6.254s6.251,2.803,6.254,6.248v9.627h3.368
	V48.25v-0.002C219.48,45.325,218.171,42.711,216.113,40.947"/>
<path fill="#4B4F54" d="M258.929,38.629v1.684c0,3.449-2.805,6.254-6.254,6.254c-3.447,0-6.252-2.803-6.254-6.248V38.63h-3.368
	v1.685v0.002c0.001,2.922,1.31,5.537,3.368,7.301c1.276,1.096,2.845,1.861,4.57,2.168v8.088h3.366v-8.088
	c1.728-0.307,3.292-1.072,4.57-2.168c2.059-1.766,3.366-4.379,3.366-7.303V38.63L258.929,38.629L258.929,38.629z"/>
<path fill="#4B4F54" d="M235.477,49.934h0.002c1.259,0.002,2.283,1.025,2.283,2.285s-1.024,2.283-2.283,2.285h-12.631v3.367h12.629
	c2.308,0,4.289-1.385,5.167-3.367c0.311-0.699,0.484-1.471,0.484-2.285s-0.174-1.586-0.484-2.285
	c-0.878-1.981-2.859-3.367-5.167-3.367h-7.938c-1.26,0-2.285-1.024-2.285-2.285c0-1.26,1.024-2.284,2.283-2.284h12.631V38.63
	h-12.629c-2.308,0-4.289,1.386-5.166,3.367c-0.311,0.698-0.485,1.472-0.485,2.284c0,0.814,0.176,1.587,0.485,2.285
	c0.877,1.982,2.858,3.367,5.166,3.367H235.477z"/>
<path fill="#4B4F54" d="M277.812,49.934h0.002c1.26,0.002,2.283,1.025,2.283,2.285s-1.023,2.283-2.283,2.285h-12.631v3.367h12.629
	c2.309,0,4.289-1.385,5.167-3.367c0.31-0.699,0.485-1.471,0.485-2.285s-0.176-1.586-0.485-2.285
	c-0.878-1.981-2.858-3.367-5.167-3.367h-7.938c-1.262,0-2.285-1.024-2.285-2.285c0-1.26,1.022-2.284,2.283-2.284h12.629V38.63
	h-12.627c-2.31,0-4.289,1.386-5.168,3.367c-0.311,0.698-0.485,1.472-0.485,2.284c0,0.814,0.176,1.587,0.485,2.285
	c0.879,1.982,2.858,3.367,5.168,3.367H277.812z"/>
<path fill="#4B4F54" d="M129.23,39.538c-0.991-0.574-2.139-0.908-3.367-0.908c-1.229,0-2.376,0.334-3.368,0.908
	c-0.635,0.366-1.202,0.834-1.684,1.381c-0.481-0.547-1.049-1.015-1.684-1.381c-0.991-0.574-2.139-0.908-3.367-0.908
	c-1.228,0-2.376,0.334-3.368,0.908c-2.011,1.164-3.367,3.334-3.367,5.825v12.509h3.367V45.361c0.002-1.854,1.512-3.364,3.368-3.364
	c1.856,0,3.366,1.51,3.367,3.364v0.002v12.509h3.368V45.363v-0.002c0.001-1.854,1.511-3.364,3.368-3.364
	c1.856,0,3.366,1.51,3.367,3.364v12.511h3.368V45.363C132.598,42.874,131.241,40.702,129.23,39.538"/>
</svg>
